<?xml version="1.0" standalone="no"?>
<!DOCTYPE svg PUBLIC "-//W3C//DTD SVG 20010904//EN"
 "http://www.w3.org/TR/2001/REC-SVG-20010904/DTD/svg10.dtd">
<svg version="1.0" xmlns="http://www.w3.org/2000/svg"
 width="1920.000000pt" height="1920.000000pt" viewBox="0 0 1920.000000 1920.000000"
 preserveAspectRatio="xMidYMid meet">
<metadata>
Created by potrace 1.11, written by Peter Selinger 2001-2013
</metadata>
<g transform="translate(0.000000,1920.000000) scale(0.100000,-0.100000)"
fill="#000000" stroke="none">
<path d="M11020 19181 c-107 -34 -277 -136 -386 -232 -128 -113 -201 -189
-388 -409 -132 -156 -399 -568 -537 -830 -178 -337 -305 -743 -363 -1155 -21
-148 -27 -196 -40 -331 -43 -428 -43 -968 0 -1464 22 -259 85 -764 118 -950 3
-14 14 -81 26 -150 28 -169 55 -279 73 -297 13 -13 18 -13 45 1 46 24 67 20
103 -21 17 -21 75 -83 127 -138 54 -58 110 -128 131 -167 20 -37 72 -104 116
-150 43 -46 117 -124 164 -173 47 -50 117 -124 155 -165 250 -269 243 -265
326 -173 53 61 68 91 53 116 -28 50 -621 646 -649 653 -18 5 -34 0 -54 -15
-53 -39 -67 -31 -198 107 -136 144 -162 174 -162 194 0 31 138 138 177 138 17
0 51 -27 116 -93 147 -150 622 -633 747 -761 65 -67 121 -115 129 -114 27 5
23 34 -11 70 -25 28 -657 673 -854 872 -17 17 -38 43 -48 58 -17 26 -17 29 4
71 22 44 22 46 6 138 -93 552 -142 1262 -117 1704 34 601 147 1060 360 1471
60 116 168 294 211 348 146 185 287 300 463 381 94 42 164 58 257 58 127 -1
221 -49 299 -150 51 -67 60 -73 108 -66 58 8 87 -2 133 -43 l40 -36 -46 -43
c-62 -58 -59 -85 15 -137 72 -50 108 -56 166 -27 45 23 47 23 80 5 38 -21 64
-70 49 -93 -8 -13 -156 -72 -249 -100 -47 -14 -53 -41 -41 -178 57 -605 -175
-1356 -656 -2125 -36 -58 -68 -114 -72 -126 -9 -31 15 -54 139 -134 61 -39
116 -77 123 -84 7 -7 15 -32 16 -55 2 -26 11 -50 22 -61 26 -24 520 -363 562
-384 31 -16 36 -16 58 -1 26 17 94 143 94 174 0 34 -39 65 -220 176 -96 59
-204 127 -240 150 -36 23 -84 53 -107 66 -41 23 -43 23 -72 6 -16 -9 -37 -17
-46 -17 -17 0 -166 88 -232 138 -18 13 -33 32 -33 42 0 22 85 136 111 151 29
15 112 -29 239 -125 58 -44 141 -103 185 -131 107 -70 435 -252 467 -260 35
-9 67 31 98 122 22 67 23 72 7 96 -20 30 -543 297 -583 297 -17 0 -37 -12 -58
-35 -18 -19 -40 -35 -49 -35 -24 0 -238 114 -248 132 -20 36 81 178 128 178
14 0 53 -13 87 -29 33 -16 187 -86 341 -156 154 -70 307 -141 339 -156 67 -33
94 -36 103 -14 8 22 -11 34 -177 111 -80 37 -194 91 -255 119 -105 50 -303
140 -372 170 -49 22 -46 69 9 153 l42 64 47 -5 c27 -3 83 -22 125 -41 l77 -36
-6 -45 c-10 -71 5 -81 290 -200 139 -58 259 -105 267 -105 31 0 61 68 70 162
9 85 10 84 -368 214 -132 46 -165 54 -201 48 -89 -13 -255 66 -255 122 0 28
57 121 85 140 39 26 150 -3 235 -61 55 -37 100 -55 283 -111 250 -76 256 -76
276 0 14 56 14 141 1 166 -12 23 -49 34 -288 90 -95 23 -182 38 -193 35 -11
-4 -31 -24 -45 -46 -20 -32 -30 -39 -55 -39 -40 0 -150 28 -168 43 -19 16 -8
77 26 145 21 44 34 58 53 60 14 2 147 -20 295 -48 367 -70 374 -71 396 -49 24
24 36 94 55 329 24 281 24 770 1 978 -67 595 -222 1071 -479 1470 -163 251
-397 493 -583 601 -105 62 -235 77 -345 42z m1028 -2093 c11 -13 23 -35 27
-50 8 -32 -2 -39 -103 -63 -87 -21 -114 -47 -110 -107 1 -21 -2 -42 -8 -48
-14 -14 -67 -22 -82 -12 -16 11 -44 180 -32 201 9 17 229 99 266 100 11 1 30
-9 42 -21z m154 -350 c22 -18 37 -69 27 -95 -7 -18 -18 -22 -86 -27 -172 -14
-182 -16 -208 -44 -14 -15 -25 -30 -25 -33 0 -4 -13 -12 -29 -19 -23 -9 -38
-9 -65 0 -42 14 -48 30 -42 118 6 95 14 101 155 105 64 1 148 4 187 5 44 1 76
-3 86 -10z m-279 -322 c47 -44 100 -56 241 -56 103 0 118 -2 136 -20 23 -23
28 -94 8 -107 -7 -4 -116 -9 -243 -10 -126 -1 -243 -2 -259 -2 -44 -1 -56 15
-56 74 0 116 24 155 94 155 35 0 50 -6 79 -34z m-31 -283 c11 -10 18 -30 18
-53 0 -38 18 -63 55 -74 11 -3 83 -15 160 -26 77 -11 150 -23 163 -26 56 -12
80 -79 45 -123 l-18 -22 -295 56 c-283 54 -340 71 -340 98 1 26 39 159 50 172
18 22 137 20 162 -2z"/>
<path d="M10770 14433 c0 -27 51 -79 148 -153 62 -46 115 -93 118 -103 3 -10
-1 -29 -10 -42 -26 -39 -20 -77 17 -112 50 -48 538 -434 563 -445 34 -16 47
-6 99 72 51 76 58 109 30 140 -9 10 -105 83 -214 162 -108 79 -234 171 -280
205 -46 35 -93 63 -103 63 -35 0 -85 28 -188 104 -102 77 -180 123 -180 109z"/>
<path d="M10583 14223 c-23 -8 -14 -39 20 -69 17 -16 205 -177 417 -358 212
-182 401 -345 420 -363 62 -58 121 -32 64 29 -27 28 -125 112 -589 507 -93 79
-194 165 -223 190 -62 53 -92 70 -109 64z"/>
<path d="M10360 13999 c0 -13 45 -64 124 -142 93 -91 130 -136 150 -178 15
-33 47 -75 78 -104 29 -27 146 -139 260 -249 227 -217 261 -246 293 -246 39 0
126 110 127 162 1 33 -3 37 -178 198 -34 30 -80 73 -105 96 -327 301 -335 307
-373 265 -9 -10 -29 -21 -43 -24 -28 -5 -26 -7 -266 216 -36 33 -67 36 -67 6z"/>
<path d="M10124 13826 c-11 -29 8 -55 140 -193 69 -72 126 -139 126 -148 0 -9
-9 -28 -20 -42 -43 -54 -42 -56 287 -385 223 -223 314 -308 330 -308 54 0 157
136 134 177 -5 11 -87 95 -182 189 -95 93 -227 223 -294 289 -100 99 -130 122
-167 132 -44 12 -73 37 -290 250 -48 47 -58 54 -64 39z"/>
<path d="M9377 13223 c-4 -3 -7 -10 -7 -14 0 -9 58 -77 144 -169 28 -30 77
-84 109 -118 l58 -64 -7 -57 -6 -58 74 -79 c41 -43 107 -115 148 -159 41 -44
102 -109 135 -145 34 -36 94 -101 135 -145 128 -136 170 -175 190 -175 25 0
128 102 136 134 8 32 4 37 -146 196 -69 73 -136 144 -149 159 -147 161 -353
371 -365 372 -6 1 -32 1 -57 0 l-45 -3 -153 166 c-139 152 -174 180 -194 159z"/>
<path d="M9131 13041 c-25 -16 -1 -49 154 -218 97 -105 155 -176 155 -189 0
-12 -12 -42 -26 -67 -22 -40 -23 -49 -13 -69 10 -19 378 -430 530 -593 77 -82
99 -112 99 -133 0 -21 -53 -72 -73 -72 -15 1 -41 23 -97 85 -25 28 -82 91
-126 140 -45 50 -162 180 -260 290 -99 110 -264 295 -368 410 -104 116 -197
211 -207 213 -30 5 -34 -26 -8 -62 13 -19 87 -102 164 -186 175 -190 140 -152
464 -511 150 -167 293 -324 316 -349 50 -53 68 -86 59 -103 -18 -32 -50 -57
-71 -57 -30 0 -40 10 -308 310 -253 283 -351 389 -378 409 -17 12 -25 11 -64
-9 -36 -18 -50 -20 -68 -12 -12 6 -96 92 -185 192 -161 178 -191 202 -198 154
-3 -19 79 -118 276 -334 35 -37 53 -67 57 -92 4 -21 16 -50 28 -65 17 -22 277
-314 297 -333 3 -3 43 -48 90 -100 47 -52 87 -97 90 -100 3 -3 45 -49 94 -103
48 -53 98 -100 111 -103 14 -3 43 3 71 15 26 12 51 18 54 14 11 -12 24 -90
105 -633 42 -278 96 -633 121 -789 48 -306 50 -339 32 -363 -7 -9 -60 -35
-118 -58 -135 -54 -299 -138 -408 -210 -424 -278 -743 -748 -821 -1211 -15
-90 -19 -153 -17 -299 3 -181 4 -189 45 -348 59 -229 111 -375 191 -537 103
-207 189 -307 337 -387 63 -35 129 -49 146 -32 10 10 -17 54 -73 119 -160 186
-243 425 -243 700 0 511 247 880 762 1141 111 56 323 144 347 144 18 0 30 -25
38 -78 6 -42 112 -825 142 -1052 8 -63 17 -126 19 -140 2 -14 13 -95 24 -180
12 -85 23 -175 27 -200 3 -25 32 -232 64 -460 33 -228 71 -507 85 -620 13
-113 38 -285 55 -383 40 -240 54 -391 47 -517 -6 -97 -2 -131 54 -460 34 -195
67 -365 75 -378 12 -18 24 -22 64 -22 64 0 68 -7 111 -193 37 -166 37 -168
-30 -206 -73 -40 -78 -67 -46 -241 92 -499 112 -626 150 -934 23 -184 26 -647
6 -801 -38 -299 -99 -481 -214 -640 -211 -293 -495 -545 -767 -681 -177 -88
-331 -122 -585 -131 -397 -14 -783 91 -971 264 -46 41 -57 66 -43 97 16 34 27
40 268 163 231 118 385 202 448 245 375 254 460 675 263 1293 -113 353 -344
567 -707 657 -105 26 -339 31 -438 9 -238 -51 -447 -162 -611 -326 -228 -227
-336 -500 -337 -850 0 -266 52 -524 167 -828 89 -234 196 -405 352 -562 252
-253 638 -424 1084 -479 187 -23 540 -19 760 9 396 50 752 198 1037 431 459
375 721 856 782 1434 9 86 6 790 -4 880 -2 19 -6 80 -10 135 -10 170 -34 403
-61 611 -38 289 -39 309 -20 352 l17 37 -61 169 c-33 93 -60 179 -60 191 0 14
13 30 37 46 69 44 70 41 -70 392 l-126 315 20 49 21 48 -56 340 c-47 288 -171
1075 -437 2781 -28 181 -52 361 -53 399 l-1 70 116 -2 c315 -4 610 -115 916
-345 378 -283 606 -666 694 -1164 36 -206 33 -626 -7 -904 -46 -321 -156 -568
-345 -776 -41 -46 -69 -85 -69 -98 0 -29 37 -71 326 -372 36 -37 73 -66 96
-73 20 -7 54 -30 75 -52 71 -75 163 -148 178 -143 31 12 12 46 -75 136 -57 58
-90 100 -90 114 0 12 9 42 21 68 11 26 17 55 14 65 -3 11 -82 90 -176 176
-180 166 -192 185 -140 212 20 9 30 9 50 -2 14 -7 159 -124 321 -259 200 -167
301 -245 315 -244 47 7 24 37 -117 158 -79 67 -154 132 -168 144 -14 12 -86
73 -160 135 -74 63 -139 120 -143 127 -8 14 35 64 55 64 18 0 55 -25 211 -142
176 -131 194 -138 242 -88 37 39 59 38 120 -6 64 -46 117 -72 133 -67 26 10
11 43 -30 69 -89 55 -108 70 -127 104 -29 52 -72 88 -223 189 -148 98 -155
107 -117 155 46 59 61 55 260 -54 107 -59 134 -70 175 -70 34 0 70 -10 125
-36 72 -34 109 -39 109 -15 0 5 -25 25 -56 43 -31 18 -70 44 -86 58 -29 25
-30 27 -17 68 20 68 9 79 -155 160 -85 41 -146 77 -146 85 0 8 10 27 21 42 28
35 26 35 301 -69 265 -100 259 -98 278 -86 12 7 12 13 4 27 -15 25 -32 33
-259 119 -110 42 -208 80 -217 85 -25 13 -22 46 6 74 28 28 36 28 183 -17 118
-36 140 -33 168 27 20 40 40 48 111 43 41 -2 49 0 49 14 0 13 -36 35 -125 78
-68 33 -131 60 -140 60 -8 0 -32 5 -52 11 -32 8 -38 14 -38 38 0 56 18 66 127
66 l98 0 87 48 c92 51 103 70 45 81 -22 4 -38 16 -49 36 -20 35 -71 60 -121
60 -42 0 -62 21 -53 55 9 37 42 65 75 65 27 0 153 58 176 81 6 6 -4 23 -27 47
-20 20 -40 50 -44 66 -5 21 -17 33 -45 44 -46 18 -47 28 -23 142 24 107 24
357 1 470 -52 248 -210 627 -364 872 -217 345 -574 651 -959 822 -367 162
-710 224 -1196 214 -266 -6 -270 -5 -287 60 -5 20 -35 206 -66 412 -31 206
-96 636 -145 955 -49 319 -91 607 -95 640 -10 90 -31 156 -62 191 -16 17 -87
94 -159 170 -112 120 -202 218 -239 260 -50 57 -155 160 -225 218 -130 109
-167 144 -243 234 -67 81 -152 172 -159 172 -1 0 -9 -4 -17 -9z m1871 -8068
c9 -10 59 -151 112 -313 65 -201 107 -314 132 -355 79 -131 93 -164 134 -303
12 -41 19 -80 17 -87 -5 -13 -226 -105 -252 -105 -22 0 -41 37 -64 125 -43
169 -51 212 -41 246 20 68 17 84 -121 631 -34 137 -35 154 -11 167 27 16 77
13 94 -6z"/>
<path d="M8360 12425 c-16 -19 -8 -29 189 -245 144 -158 170 -197 141 -215 -6
-3 -17 -19 -25 -36 -18 -35 -8 -62 46 -120 19 -19 126 -136 238 -260 113 -123
212 -231 220 -240 28 -27 148 -163 171 -191 12 -16 31 -28 44 -28 32 0 84 37
122 87 34 45 35 67 5 100 -9 10 -117 130 -241 268 -414 460 -431 477 -476 492
-35 12 -70 45 -200 190 -211 234 -207 231 -234 198z"/>
<path d="M8112 12218 c-28 -28 -37 -18 453 -538 45 -47 111 -116 147 -155 36
-38 81 -86 98 -105 18 -19 97 -102 175 -185 78 -82 164 -174 190 -202 48 -54
78 -66 89 -37 4 11 -17 40 -66 92 -109 115 -221 235 -374 401 -64 70 -49 54
-209 226 -148 160 -364 391 -405 435 -14 14 -33 38 -43 53 -19 29 -36 34 -55
15z"/>
<path d="M7840 11995 c-9 -10 -10 -22 -4 -35 5 -11 88 -99 184 -197 124 -126
184 -195 206 -236 23 -44 99 -127 315 -345 156 -158 324 -329 372 -379 48 -51
93 -93 98 -93 33 0 103 60 129 108 20 41 2 72 -108 186 -59 61 -188 197 -287
301 -376 396 -355 379 -413 330 -17 -14 -39 -25 -50 -25 -11 0 -50 32 -93 76
-242 251 -315 324 -325 324 -7 0 -17 -7 -24 -15z"/>
<path d="M7593 11763 c-32 -12 -2 -51 168 -214 100 -96 184 -176 188 -179 27
-22 32 -40 20 -78 -9 -31 -9 -44 2 -64 8 -14 100 -105 204 -203 105 -98 242
-228 306 -289 64 -61 152 -146 197 -188 86 -82 108 -91 150 -62 34 23 82 93
82 119 0 29 -767 795 -796 795 -6 0 -25 -5 -42 -11 -23 -8 -37 -7 -54 2 -13 6
-103 91 -200 187 -204 202 -198 197 -225 185z"/>
<path d="M7327 11506 c-9 -22 12 -44 194 -207 95 -85 183 -165 196 -178 28
-29 29 -55 3 -88 -11 -14 -20 -38 -20 -53 0 -33 17 -50 365 -350 143 -123 262
-227 265 -230 37 -40 213 -180 226 -180 25 0 77 38 102 75 32 46 28 82 -11
119 -96 90 -391 359 -447 408 -36 31 -101 91 -145 133 -109 105 -167 151 -245
191 -45 24 -121 85 -250 204 -179 164 -220 191 -233 156z"/>
<path d="M7080 11253 c0 -6 10 -24 23 -41 17 -25 716 -611 1132 -951 44 -36
106 -89 137 -118 31 -29 61 -53 66 -53 5 0 17 9 27 20 22 25 51 -2 -350 331
-857 714 -975 809 -1004 815 -18 4 -31 2 -31 -3z"/>
<path d="M6863 10983 c-7 -2 -13 -12 -13 -22 0 -18 124 -121 258 -215 107 -75
184 -146 230 -212 31 -44 110 -106 467 -368 254 -187 439 -316 451 -316 26 0
99 78 108 116 11 44 43 16 -509 450 -408 321 -385 308 -443 259 -17 -14 -39
-25 -50 -25 -12 0 -94 55 -184 123 -173 131 -293 218 -299 216 -2 0 -10 -3
-16 -6z"/>
<path d="M6615 10680 c-3 -5 -3 -15 0 -20 4 -6 115 -83 246 -171 132 -88 243
-167 246 -176 3 -9 -1 -35 -9 -58 -28 -76 -35 -70 473 -390 254 -159 471 -294
482 -298 18 -7 27 -2 49 24 15 17 37 51 49 75 23 42 23 43 4 64 -11 12 -40 35
-65 52 -25 17 -227 154 -448 306 -355 242 -409 275 -450 280 -51 5 -49 4 -339
195 -180 120 -223 141 -238 117z"/>
<path d="M6405 10379 c-16 -25 7 -55 67 -90 35 -19 386 -221 780 -447 395
-227 721 -412 725 -412 4 0 14 4 22 9 21 14 -3 47 -57 77 -26 15 -141 82 -257
150 -255 148 -689 400 -730 424 -16 10 -140 81 -274 159 -134 77 -250 141
-257 141 -7 0 -16 -5 -19 -11z"/>
<path d="M6224 10035 c-12 -30 0 -37 298 -179 137 -65 203 -106 277 -170 36
-31 68 -56 72 -56 4 0 79 -34 166 -76 87 -42 199 -96 248 -119 50 -24 158 -75
240 -115 245 -118 316 -150 334 -150 33 0 81 77 81 129 0 36 -14 46 -165 126
-60 32 -114 61 -120 65 -5 4 -59 33 -120 65 -60 32 -164 87 -230 123 -258 139
-383 202 -402 202 -11 0 -36 -18 -56 -40 -23 -26 -44 -40 -60 -40 -21 0 -307
131 -480 220 -67 34 -75 36 -83 15z"/>
<path d="M6054 9675 c-9 -23 2 -32 79 -60 124 -46 380 -147 422 -168 58 -28
75 -46 75 -79 0 -18 9 -37 23 -50 23 -21 1057 -408 1090 -408 22 0 65 45 73
77 8 31 -2 69 -24 91 -10 10 -119 61 -243 114 -629 269 -768 327 -793 334 -20
5 -35 1 -56 -15 -16 -11 -42 -21 -57 -21 -15 0 -145 45 -288 100 -144 55 -269
100 -279 100 -9 0 -19 -7 -22 -15z"/>
<path d="M5905 9300 c-4 -13 -3 -25 4 -29 6 -4 115 -35 243 -70 128 -34 258
-70 288 -80 l55 -17 6 -67 c9 -107 9 -107 354 -187 99 -23 309 -75 466 -116
278 -72 340 -83 367 -65 7 4 20 30 28 56 13 43 12 51 -2 73 -8 13 -30 30 -48
37 -17 7 -256 84 -531 170 -495 155 -501 157 -575 152 -71 -4 -87 -1 -330 74
-316 98 -316 98 -325 69z"/>
<path d="M5823 8923 c-11 -4 -20 -43 -10 -43 1 0 403 -81 892 -179 619 -124
895 -176 908 -169 13 7 15 13 8 27 -11 19 -5 18 -1211 255 -294 58 -544 108
-555 110 -11 2 -26 2 -32 -1z"/>
<path d="M6412 8409 c-13 -5 -31 -27 -42 -54 -28 -65 -45 -70 -181 -52 -122
17 -182 23 -324 32 -49 4 -102 8 -118 10 -32 4 -51 -21 -36 -47 10 -18 47 -24
204 -34 55 -3 102 -8 105 -9 3 -2 48 -6 100 -9 137 -9 167 -15 248 -47 72 -29
147 -41 342 -54 52 -4 106 -8 120 -10 14 -2 68 -7 120 -10 52 -4 102 -9 110
-10 9 -2 65 -6 125 -10 61 -4 113 -9 116 -11 4 -2 67 -6 141 -10 l136 -7 17
27 c16 24 20 55 16 108 -2 36 -48 50 -258 79 -115 16 -221 31 -238 33 -16 3
-129 19 -250 36 -121 16 -233 32 -250 35 -16 2 -55 7 -85 10 -30 3 -64 8 -75
10 -11 2 -30 -1 -43 -6z"/>
<path d="M6360 7971 c-33 -19 -54 -20 -325 -21 -290 0 -332 -5 -342 -37 -8
-23 70 -31 329 -31 147 0 276 -3 287 -7 13 -4 26 -24 36 -56 25 -73 42 -78
240 -74 88 3 314 7 503 10 460 7 483 10 503 62 10 28 3 90 -14 112 -21 26 -58
30 -289 36 -223 5 -311 8 -713 20 -167 5 -182 4 -215 -14z"/>
<path d="M7140 7644 c-190 -12 -430 -27 -535 -33 -104 -7 -217 -14 -250 -16
-33 -2 -107 -7 -165 -10 -402 -22 -444 -26 -460 -41 -30 -29 8 -34 209 -29
643 16 1681 94 1681 126 0 17 -42 30 -88 27 -26 -1 -202 -12 -392 -24z"/>
<path d="M7380 7514 c-63 -7 -295 -34 -515 -60 -220 -26 -415 -53 -433 -60
-34 -14 -52 -46 -52 -93 0 -47 -24 -57 -190 -80 -366 -52 -403 -61 -385 -92
10 -14 111 -7 282 21 167 27 278 34 343 22 50 -10 100 -3 560 74 638 107 607
100 627 130 21 33 11 112 -18 137 -25 20 -56 20 -219 1z"/>
<path d="M7450 7219 c-47 -10 -280 -59 -518 -108 -239 -49 -441 -96 -449 -103
-9 -7 -22 -28 -30 -45 -23 -56 -15 -53 -359 -127 -154 -32 -234 -59 -234 -76
0 -25 74 -17 300 30 331 69 305 66 321 43 19 -26 52 -43 85 -43 27 0 936 206
1041 236 64 18 83 43 83 107 0 40 -5 53 -29 78 -36 35 -80 37 -211 8z"/>
<path d="M7137 6790 c-409 -106 -545 -145 -570 -163 -56 -43 -88 -54 -295
-107 -271 -68 -299 -77 -306 -97 -15 -39 14 -36 256 27 134 34 258 66 275 70
26 6 39 3 58 -12 14 -11 25 -26 25 -34 0 -26 39 -54 75 -54 19 0 133 29 252
65 120 35 350 102 512 149 161 46 305 93 320 103 18 14 27 31 29 56 4 46 -31
115 -64 127 -14 6 -26 10 -27 9 -1 0 -244 -63 -540 -139z"/>
<path d="M7600 6574 c-166 -59 -616 -205 -975 -316 -519 -160 -555 -173 -555
-199 0 -32 30 -39 85 -18 64 23 640 220 1178 402 282 96 422 148 428 160 16
28 -22 21 -161 -29z"/>
<path d="M7790 6490 c-14 -4 -187 -70 -385 -147 -198 -77 -418 -162 -488 -189
-156 -59 -180 -78 -176 -137 6 -84 7 -83 -325 -222 -177 -74 -208 -91 -204
-113 9 -47 40 -38 353 103 156 71 206 87 250 81 50 -8 4 -27 604 249 369 170
470 221 479 240 14 31 -2 90 -33 121 -25 25 -35 27 -75 14z"/>
<path d="M7910 6223 c-19 -8 -517 -283 -760 -420 -63 -36 -134 -76 -157 -89
-23 -13 -44 -33 -48 -43 -12 -38 -83 -88 -286 -199 -217 -119 -261 -151 -243
-179 6 -9 15 -18 20 -20 6 -2 114 58 242 132 127 75 245 138 261 141 23 5 36
-1 69 -30 21 -20 50 -36 62 -36 20 0 648 411 868 567 81 58 90 94 41 157 -20
25 -38 30 -69 19z"/>
<path d="M7999 5998 c-16 -15 -303 -240 -684 -537 -143 -111 -273 -213 -290
-226 -16 -12 -77 -60 -135 -104 -207 -161 -202 -156 -198 -185 5 -36 47 -32
103 11 52 39 704 575 1048 862 109 90 196 169 194 175 -5 16 -24 18 -38 4z"/>
<path d="M8018 5863 c-50 -49 -99 -95 -108 -103 -9 -8 -59 -55 -111 -105 -475
-452 -486 -464 -476 -508 3 -12 13 -41 21 -65 9 -24 13 -49 9 -57 -5 -7 -82
-91 -173 -185 -91 -95 -166 -176 -168 -180 -1 -4 4 -13 13 -20 24 -20 45 -4
209 170 111 118 163 165 202 185 64 32 204 169 374 365 23 27 221 240 304 327
83 88 116 131 116 154 0 32 -81 109 -115 109 -3 0 -47 -39 -97 -87z"/>
<path d="M8289 5737 c-15 -12 -82 -89 -150 -172 -191 -233 -296 -360 -406
-491 -127 -153 -128 -155 -113 -209 7 -24 9 -53 5 -64 -4 -12 -52 -79 -108
-149 -165 -206 -189 -240 -185 -259 2 -10 14 -19 26 -21 28 -4 31 -1 205 226
l132 173 39 -4 c21 -3 49 -2 61 3 14 5 101 117 211 270 443 614 442 613 411
651 -13 17 -86 69 -96 69 -3 0 -18 -10 -32 -23z"/>
<path d="M8508 5578 c-9 -7 -110 -161 -224 -343 -113 -181 -221 -352 -238
-380 -84 -132 -96 -153 -96 -177 0 -46 -23 -92 -134 -271 -135 -215 -135 -217
-129 -233 6 -16 34 -27 44 -17 4 4 58 91 119 193 61 102 122 196 135 209 24
24 25 24 77 10 70 -19 84 -15 112 34 62 107 455 839 463 864 15 40 0 68 -50
97 -50 30 -57 31 -79 14z"/>
<path d="M8717 5423 c-8 -10 -29 -47 -45 -83 -16 -36 -67 -144 -112 -240 -45
-96 -96 -204 -112 -240 -17 -36 -64 -134 -104 -219 -41 -84 -74 -155 -74 -156
0 -2 -27 -60 -60 -130 -33 -70 -60 -128 -60 -130 0 -1 -25 -54 -55 -118 -30
-63 -55 -120 -55 -126 0 -6 10 -16 22 -22 19 -10 25 -8 44 16 12 16 59 112
104 214 120 272 497 1106 520 1151 20 40 27 100 12 100 -5 0 -16 -8 -25 -17z"/>
<path d="M8847 5362 c-9 -10 -96 -225 -193 -477 -125 -326 -173 -464 -167
-476 4 -10 24 -28 43 -41 23 -16 36 -33 38 -51 2 -17 -26 -112 -67 -228 -39
-109 -71 -213 -71 -229 0 -35 24 -50 45 -29 8 8 48 113 90 234 60 175 82 225
105 247 16 15 36 40 45 57 25 49 306 883 307 913 1 35 -17 57 -67 79 -51 24
-88 24 -108 1z"/>
<path d="M11829 5328 c-57 -25 -89 -56 -89 -84 0 -22 323 -474 358 -502 10 -8
30 -11 50 -8 50 8 71 -7 144 -102 37 -48 76 -97 87 -109 38 -40 75 -1 45 46
-10 14 -43 58 -74 96 -95 118 -96 119 -75 165 14 31 16 45 7 63 -18 39 -366
440 -388 448 -13 5 -37 0 -65 -13z"/>
<path d="M9176 5243 c-17 -17 -40 -90 -147 -452 -61 -207 -117 -395 -125 -418
-9 -30 -12 -65 -8 -116 6 -67 3 -86 -44 -248 -51 -176 -73 -299 -55 -299 32 0
58 59 118 265 35 119 68 222 74 228 6 6 30 10 53 9 73 -3 86 16 127 190 60
249 122 506 153 629 27 107 30 131 20 153 -19 42 -140 85 -166 59z"/>
<path d="M11513 5180 c-24 -10 -48 -30 -54 -43 -12 -27 -9 -35 101 -232 37
-66 89 -160 115 -210 96 -179 113 -194 182 -161 19 9 43 14 52 11 9 -3 54 -64
100 -136 68 -107 87 -130 105 -127 40 6 30 42 -43 149 -51 77 -73 121 -85 169
-11 45 -41 105 -95 195 -110 182 -227 361 -253 385 -27 25 -70 25 -125 0z"/>
<path d="M9457 5081 c-9 -22 -30 -104 -46 -183 -17 -78 -82 -384 -146 -678
-63 -294 -114 -544 -113 -555 4 -24 56 -28 69 -5 4 8 46 218 94 465 47 248
106 554 131 680 43 224 53 315 35 315 -5 0 -16 -18 -24 -39z"/>
<path d="M9616 5098 c-9 -13 -27 -95 -41 -183 -13 -88 -45 -281 -70 -428 -25
-148 -45 -281 -45 -296 0 -32 11 -44 54 -58 17 -5 39 -21 49 -35 19 -26 19
-28 -1 -195 -35 -282 -35 -307 -1 -316 35 -9 35 -10 83 419 3 22 18 74 35 115
27 67 34 114 76 477 25 221 45 419 43 439 -4 48 -40 75 -112 81 -49 4 -56 2
-70 -20z"/>
<path d="M11307 5093 c-18 -17 -4 -49 310 -703 156 -325 156 -325 181 -328 29
-4 38 20 21 61 -7 17 -55 120 -107 227 -52 107 -148 308 -214 445 -67 138
-129 262 -140 278 -19 26 -38 34 -51 20z"/>
<path d="M9926 5038 c-14 -22 -34 -206 -51 -463 -3 -49 -8 -103 -10 -120 -6
-42 -19 -242 -19 -287 0 -31 7 -44 36 -71 20 -19 40 -46 44 -62 4 -15 -1 -96
-10 -179 -21 -195 -21 -229 2 -249 26 -24 49 -21 55 6 4 12 7 87 8 167 1 80 5
174 10 210 8 59 13 68 51 101 l41 36 8 104 c16 207 23 763 10 786 -12 24 -66
43 -123 43 -28 0 -41 -6 -52 -22z"/>
<path d="M10266 5020 c-16 -5 -33 -15 -37 -22 -5 -7 -6 -200 -3 -428 5 -378 8
-420 25 -469 16 -44 21 -90 25 -240 6 -227 7 -231 39 -231 l25 0 0 214 c0 182
2 217 16 230 8 9 22 16 30 16 34 0 72 30 80 62 11 46 10 72 -32 698 -4 52 -10
105 -15 117 -16 43 -94 70 -153 53z"/>
<path d="M10537 4963 c-4 -3 -7 -28 -7 -54 0 -42 78 -756 115 -1054 8 -67 15
-126 15 -133 0 -7 9 -21 21 -33 16 -16 23 -18 35 -8 23 19 28 -33 -91 954 -20
160 -40 300 -45 313 -9 21 -30 29 -43 15z"/>
<path d="M9420 3600 c0 -5 5 -10 10 -10 6 0 10 5 10 10 0 6 -4 10 -10 10 -5 0
-10 -4 -10 -10z"/>
</g>
</svg>
